/* XPM */
static char *_4ffa7f34e034cb2a4d0ff43565f3eeeh6leTYAHA7qwxvaG[] = {
/* columns rows colors chars-per-pixel */
"64 64 41 1 ",
"  c black",
". c #9A8C77",
"X c #8C7B67",
"o c #81735D",
"O c #7B6B5A",
"+ c #736B52",
"@ c #736352",
"# c #685D4C",
"$ c #5E5246",
"% c #524A42",
"& c #4C4436",
"* c gray22",
"= c gray25",
"- c gray33",
"; c #4C4C4C",
": c #484848",
"> c #343434",
", c #525A4A",
"< c #2E2B22",
"1 c #282828",
"2 c #2C2C2C",
"3 c gray19",
"4 c #202020",
"5 c #212921",
"6 c #483818",
"7 c #302410",
"8 c #181818",
"9 c #736B5A",
"0 c #847B63",
"q c #313929",
"w c #313931",
"e c #394A39",
"r c #5A6B52",
"t c gray44",
"y c #044C00",
"u c #293121",
"i c #044000",
"p c #046400",
"a c #045800",
"s c #28200C",
"d c #182118",
/* pixels */
"                                                                ",
"                                                                ",
"                                                                ",
".....XXXX....XXXXXXooooXXX.....XXooXXX..XooXX.....XXooXX...XXoXX",
"OO+++@OOOOoOo+OOOOOOOOOOOOOOOOOOOOOOOOO+@OO+@##@+OOOOO+#+##++O+O",
"$$$$$$%$$$###$#$$$$%%$$$$$$$#%$$##$$$$$$$$$#$%$%&$$$$#$&%%%%&$$$",
"%%%%$&%$$#$$#$###$$$%$$$$$###$$$$#$$$#$$#$$$%&$#$%$$$#$$$%&%%$$%",
"%%%%%&%%$$%$$###$%$$$$$$$##@@#$$$$#$##$$$$%$%$$$$%$$$$#$$$&&%$$$",
"&%%&&%%%$%%%%$%$%$$%$$$$$$$#$$$$$%$#$$%%$%$$%$$$$$$%$$$$$$$%%$%%",
"&$$$&&%%$$&&%%$$%$$%$$#$$$$#$$$$$$$%$$&%$$$$$$$%$$$$$%$$$$$%$$$$",
"$$%$%%$$%%$$$$$$$$$$$$###$$$%$#$%%$%%$$%%$$$$$$$%$$$$$$$$%$%$$##",
"&$$%*&%%&%%%%$$%%&%$%$$$#$$$$###$%$%%$$%%$$#$%%%%%%%%%%%%&%&%$$$",
"******=%$-;%::&%%=**>>==&==%%%**=*==:==*=:%,-%==::;;%$%::==:=*==",
"<12122>3>*>2>*>>>211111123123314<4<1115413>>>3<22<3>3*33>***3233",
"&&<66<6&&6&<76&%&%&66666%&%6678668<<<676&%&&%&<667<&6&&666<<<6$$",
"$##%%$@#$$#%&$#@$##O#$$#@#@#$%&&&>$&%%&&$#%$#%&&%&%#$#$$#$%%##9o",
"9#@%$$##$#9#%#$$$$%$&$$@9##$%%&*&&%&&%%%$$$9@%%%$$$#$####$%%##9o",
"@$$&$$$$##@#%$$$#$%$&%%999$%%*&>&&&&&%&&%$$#$%$$%$$$#####$%%#$#9",
"@$%%$$%##$$$&$$@@$$$$$%$#9$%&&*&%$&&%&&%&$$$%$#%&&%$$$#$%%%%#$#O",
"O$$$#$$#$#$$%$@9#$@##$$##O9@$&&$$#$$&&%%$$%%$$$%%%$$%%$%$$%$$##9",
"o$$#$$#$$#&$%##%##O##@$$#@o@%&%%$@&%&$#$#$%$#%%%%&$$##%%%%%%$##9",
"@@O#%$%#@#$#%#$$O9O@@9$%#99@$%#$$$6&&&%&$%%##$%%&%$%$$$$#$%%$##9",
"#@#%%#$@$$#&%$$#9##$##$$@9o@$%#@@@$$&&&&%%$#$$$%&%#$#$$$#$%&$$$#",
"@o@$$$%%&##$$@0Oo9####$#@##$%%##$$&$&%&%$#$$$$$$$$######@$%&%%$#",
"#9##$%$$$##$$@@@@##999@#9##$$$#$$$&%%$$$#$%$$$$$$$#9##@#@$%%%$$$",
"#9%%$##$$####9@@###@##@9999#$$$$$%&%%$%$#$$##$$$%&$@###$$%%%$$$$",
"#$%&$#%%##$$#@OO@#%$$#90oOO#$$#$%&6%$#%$##9@$%%%&&$##$$###$%&%%%",
"$#$%$%&&$#$$#@9###$$#@@OO99##$#$##@%%#$#@##$%%$$$$%##$#9#$%&&$%%",
"#$$$%%%%$#$$#@9@#$$$##9%#9#####@@####@$@@##$$$#$##$###@9$#%&%$$9",
"##$%%$$$%$$%##@##%%$#@O#oo9@9##@o$$##%$@##@##$##$%&99#99$%&&&$%$",
"%#$%&%%%%#$$@#@#$%$$##$%#O@$$%$@$&%$$$@9#@o@$&%$&%$o9###$%&&%%&%",
"%#$%%$$%$@$#@@O@$%$%$$$$$$#$$$%$@$$@#$###$o9%&$#$$######%&&&$%$#",
"##$%%$$$##%$$@o@$$$$$$$#$%$%%&$###$$###@9@o$&$$$$$####$$%%%%$%##",
"9O$&$$##@$%%$99@$%$$%$#$$%$%&%##$#%$$$###%%&$@#$#$$#99$$&%&%%$%$",
"##$&$$$##%&%$#O#$$$#$##%%&$#@$9#$$&$&$$%&&$$##$%#$%####$*%&&%%$#",
"$@$&$$$%$$$$#@0#$$$$$$$%#$##@%@$@#$$%$$%$&%$$#$%#%$####&&$$&%%%$",
"9#%%#$$$####@@9##$$#@$%$$$%%$%$#$%$&$#%&$$$$$%&%%%###$#$$$%&%%&%",
"#$%$$%$$##$%#9@##$$####$&%&&#$@@##$&#$%%#####%%%%$$$$$$$%%&&%%&%",
"#$%%$&%&$#%##9$%&&%##$$%&&&%9$@@#%%#@$#$$#9O#$$$$$#$$$$$%%&&&&%%",
"%$%%#%$&$$%##@%&$%%##$$&%&&%@$#$@%#@#@@#9@o9$$$%%$#$#$%%&%%%%%&%",
"$$$$$%%%$@%$##$@#&%###$%&&&$#$#oo#$#$9@#9@0@$$%%%$#$$%%%&&$%%%$$",
"$$$$%&%$#$%$###%*q$$$#%%%%&&$#O@@%$%$o@#o9X9$%%&&$#%$$%%%%&=%%$$",
"9@$$%%#%%$$$#$$&&&$$#9##$%&&$#$$##$$O0O+O@9@$%$&$@$%$$$$$%&&####",
"o#$@%%#%$$#$$$#$#$$%#9@@$%%$@#$$#$$$99o@#@##$$$%$$&$$$$$%%$$%#$#",
"O@#$%%$##$$$#@#$$$$$$$#$$&&%$$$%$@#$$$#%$OO@$$&%%&&$##$$%$#%$#$$",
"#@$$%&&$$$%-$@$$$$%$%$$&$%&%%#$$$@$$@#$#@o0###$#%&%$##$$$#$%$#@$",
"##%%w=%$&=%###$$####$@@@O$%%%@@#@#$@#$$@#@O###%##$%$$$$$@$&%$#$%",
"$@#$%%%$#$9#$$%%@$##%&%9@%%%%#$$#$##$$#@$#o9@$&%%%%%%$#$$&%%%#%$",
"$$#$$$%$#$##$$#$%&%$$@#o#$$&%%$#O#@##%$#%@0O@$&$&%&&##$%%%$$$%#9",
"##@#$$$##$##@$$&&$#@#oo@#9#%$$$@@@@##$##%#9#$$$%&&$$@@#$$$$%;:9@",
"$####$$#99#@@##$&@+9@o0Oo#$$##$$$$##$%$$$#@#$$$%%$#$#$#&&%%%%$#%",
"$#$#=$$###$@@#$%&9#@9###@$@#@##$o@@#$%$$$###$###$#@9$$#$$$$%$$$$",
"$$##$:=##$####$$#@99O##@O@O9@##$@o$$###$$$#$$####@9#$$@#$$$$:#$#",
"$#@@$%$O9$##@#%#@#$@9$$@#$#$$$$$@$#####%$#@#$#$#$@#$#9#$$$$$$@@#",
"@@@$$$$$%e=####O$$$O@%$$%&$%$#$$@$##@@#$##@@########@#$$%$#$$##$",
"=:$%$%$#$$-O@9@@%#9@$%%#$#$$$#$$#$@@@OO##%$###$$$-##@##$%$$#$$##",
"%$#$#$$$%$$OO99@$9@$$###O@$$#9#@@@$#9@@#%%9O@#@9#$$%%#$#@@@#$%##",
"=$-#$$$$$#$####@$@$$#@@#@@####@$@@$#@#@#$@O@#909#$$$$##@#@$#$$$#",
"%$$$$#@####@@9@@%#@$@@##@#$$$$$#o##@@9@##OO@9O@$#$$$####99$$$%%%",
"%$$$$$$%$#$$9#$%%@@##$9oo@##@$$@@@#OO@###@#$@o9@#@#$%##@#$$#$%$%",
"$$@@@#:$@#$@@@$%$@###$##9@#@$$$@#$@9@9$$#@##9O999$$$#OO99$$$$#-$",
"r@@@@$$%$$#999@$#O@#$$999O@9$$$#@$o00O$$@@#$t09rr,$#@9o9$#$$$@#$",
"yuyi@$,$,pii@9pyi9,$$,9pi$r##ay@ayu0$$@py5$,,p5,r,y$@pi,yu,r@p@p",
"y5iis55iyaaauuiyayyyayiiyu5iiyissiuu5d7iyui5aaq5yyyyqqyyaawayiya"
};
