/* XPM */
static char *_250121b4fb04af89b7a203bfd031a85H2eG29TGSfasMtwX[] = {
/* columns rows colors chars-per-pixel */
"64 64 36 1 ",
"  c gray22",
". c #E88C58",
"X c #BC7848",
"o c gray11",
"O c #DC8854",
"+ c #FCA470",
"@ c #D0D0D0",
"# c #C0C0C0",
"$ c gray66",
"% c #D08050",
"& c #C87C4C",
"* c #A86840",
"= c #885830",
"- c #989898",
"; c #F0945C",
": c #905C34",
"> c #A0643C",
", c #744C28",
"< c gray55",
"1 c #6C4824",
"2 c #5C4020",
"3 c #483818",
"4 c gray44",
"5 c #543C1C",
"6 c #403018",
"7 c gray25",
"8 c gray36",
"9 c gray19",
"0 c #646464",
"q c #484848",
"w c #4C4C4C",
"e c #7C7C7C",
"r c gray33",
"t c #FCCCB0",
"y c #FCB890",
"u c black",
/* pixels */
" ..........................Xo ............Xo ...........Xo....Xo",
" O.O+@#++$%&%O.O*%X&.+%%*&X=o .%O&.OOO-$+OXo %%X&XXO%*&X=o-;;X:o",
" .++$$.++X**XO++&XX%%$+&&XX=o +O*X&&---$OX:o X*X**XOX*>*,o;@#%=o",
" ;#$<$X%.**>XXOO**&*X&-XX*>1o OX>>*X--$O*=2o >%&*>**:=:,3o*%<41o",
" O$X*X%%X**XO&X**%&>XX-X**=5o ;OX>=**>*=:,6o :OX>>:=**<,6o=>4,7o",
" *X**X&OX**&%$$&*$$*X&X*>>,3o +%&X>**===,16o :OO%X***:,,3oO;<87o",
" =>X*XO$X*.O&&-.&-%X***>=,26o %==&&&&=>==16o X.%%&&%X==:2o&-:29o",
" .<*>X%X&X&*%**O%>XX>>*:,,76o X,>O%&>,:=,16o X;;OO.%X*>:5o4*0q9o",
" $-X**X<<*<-X>>>>>*>=:*,,>q6o O>XOO%:,=:,w o 0:$X&X*4<eeqo115 9o",
" *%*:*4e*>4-e4=,===,,=>:,8,3o &:******>>:16o w=X*X&%**e<qooooooo",
" &&>>>==,w=4,,,0=,,w,=>>=:,3o *,:1,:X:,:>,5o **%X&-*40447o&&*=,o",
" %X:>==r,rw51r0:,,,,,4>>=4,3o ****>>4,=*>,2o OOO-O<*e>*,6o;+%<,o",
" &**:,=:4088=:=>,,:e:=*:=,16o X%X*>*4**X:,3o %%O<O-*:>>=3o%-X4qo",
" <4>=:>4::4>>:,,=>e>:=>:,136o &O&*=4***:=23o &%O*<<<4*4,3oX*0w3o",
" 00=,=,111,2,04,=4,11r,22266o **,,2,:,,,,36o *&X*e4X<-<45o*:179o",
" rw17766369637q33q256336366oo 1,536353536ooo .&=4$<<<<<:2o:079oo",
" oooooooooooooooooooooooooooo oooooooooooooo OX,*-**:>447ooooooo",
"*>=XX**>,<O*e:,                              -O>*%**>:=87o$$.<X>",
"=:X<*%<44:%:==1o  &X**&&%;X*X>*X   >O+%>X*=, $.*>***=:=,7o%+O<&*",
"1:X<:>:0=>***42o &%OX%$;.&&XX%X>1  &t+**&%:2o&OX:>X*4::07o%$%O*2",
"4*e*,,,,X*>&<=5o $&X**-O&*&&XO*:2  .+*>**:17o*X***>e4::02o$#-X,r",
"<<-X,=XX*=*<>,3o=%*:******%&XX*,3o OX==>=,23o***X*:,1,=,5o**=,,*",
"*<&*4*X*,,4:4,3o>X=*&X*X*=*X**:23o &,2,,,566o=X*:,1704853o,=*,,=",
"--&*>4,*,,,,4,3o=X*XXXXX*,:>>>,23o =,336666oo%+&,q18<>=w3o1*&>,X",
".%*:,:**=,,:4,5o>&XX**XX*,=>*>,,5o  ooooooooo@+:,4<*e::16o:*X:,&",
"O.%<::*:,,==:=5o:X*==:=**:==>:==qoOO**XX*>,o >:****&*X>,3oX$&&:<",
"$;;$:=>:=,,:=13o,**,1=4>==,,===,5o%OX%XX**,o ::>*>4**<:,3oe$-%OO",
"O$$*,,=,=,,1,,3o>*:=>e4=,,,,=:>,3o.&:&X*>=2o ;O>*>:e4:=,3o&XX$#.",
"$.>12=>4,,,,>=6o>>:=044e:=1,:<:=5o+.>*X>=,5o XX=:>4*:=:,6o.X-$-$",
".$,1=X*>,,,=*,6o=>,>,=*:>4==>**,5o;;X*X*:,3o **==*e&,2>=3o&XX=*.",
"OX==**==,0=:>,5oo>=,==e>>>**:=>,3o.X*,:>:,6o :,,>X-*,1>=6oXX,,XO",
"%*::===:,====16oo,,=:::=>:**:==23oX=,1,,>,5o :,:*X*=,4:,6o.&>><-",
"&>=,,>4:,,,,,,3o ,,,,,:,,,::=,266o>*>>*,*:2o X+;X1,*>e>=2o&*eX<%",
"*:=0,8,=,1,,=,3o  25335532155336oo:*>*X=*:3o *..*:&$ee<07o$***-O",
"*==,:,r,,,,==25o   ooooooooooooooo*X**,==16o *;*>%$$:*<05oO#Xe-$",
"X>,==,,,===>=13o  %.;;+.X*&X=,,2  OO%*1*122o &+*X&$-e&-:2o@#X*X-",
"**=,2,r,,,==,16o  .++.O*XX**:*=,o .$&=2:223o #@:,,>:<-X4qo$XX***",
">=25,,1,=:>=,q o  %%%&*>>>*>:*=1o .O*:::1,5o ;;,,*X><*:,7o4,***X",
"=42,=0,,=:,,,23o  *&XX:=::::**,5o X*X:*:::ro X:=>&%>:<<47o$&*:>4",
",,1,,,11,,22256o  X*=:=,:,,:>,26o ,>***:<e1o .&:XX&*,=ee7o&X>,5,",
" 335533 363666oo  **8,,1,21,,266o ,*X*X:=,2o #$>&&:01,<47o=82669",
"oooooooooooooooo  >,1535363366ooo X*=XX=X:5o #$>*=1,4e4,6o ooooo",
"      X%*=>*<-**&. oooooooooooooo %X**>*X=3o %-4,,,,44rq9o 4<:, ",
"  XX&.%&>>***<%%O.%X*>>:1         X&&*>X*,3o =425355q7 9oo *4:, ",
"  *O%%*X*:><>**%%X&*&%*,2o %;$&:  &&****>,3o  oooooooooooo :=,2 ",
"  %.%&XX&Xe*X***<-***>,26o &.%*,o *>,2,,,26o                    ",
"  XO%**XXX*>X>*<XX**:,,23o %$&>ro ,15636666o  *O;O.O*>O$$O*XO%< ",
"  ;.%*>%X&****-e***>,,,26o X$*,5o  ooooooooo  4+$;&***X;.%%OX:4o",
"  ;X*>X+%.O&*--*:*e>=,,26o ,*,56o *&&X*X:>-4  #y+%&>X-OO$$+&<<,o",
"  X***&+%%X*&e>>4*e*,,,,3o >4,76o &O%&**X>:ro +$OX*>X&&X%%%::,qo",
"  *&XXXO%X****>*:<-->,,=5o >,366o XXX>==:,,3o ##-*<>*%&*X*=>=,5o",
"  *X&***>*X:>X<&<-<:>>=27o  ooooo :,11252366o $O-XeX*%&&&=,>>=7o",
"  XX**>:**=:44%X-e>::4,23o        ooooooooooo %%$$O%<X%&>::4,,5o",
"  XX>XX>X::X40*4::::*>,,3o %*X**>:,*X&;;XOX,  %%-$;$O0&*,04*:,3o",
"  O.&*X*XXX-e=>=:>44*:=,3o ><%%O$&,*&&O;X*>=o ;O$;$O$$$=184>083o",
"  %%XX*>X%e:>,:=444,0,,,5o >*<O%&%*%%*>**,>,o O+;;%%->*,8==>:w6o",
"  &&*:**X>:e44,84::,,,:=6o *;%&*X->*&==*X*>5o %+&&Xe,=008,4*>07o",
"  *:1:XX*=:*=:=8==,,**=56o %$$*>>&*>>=>X*=,3o +.>%O*2,1r44>>:,7o",
"  *==&**:,=:==,,====**236o +;O&*>O-:===>*=,3o +O*$%e,=000=>e>,3o",
"  $X>*==,,,=,,,,4>==>>1,2o ;%%&&*&OX:=>**>=5o ++<$&e=40,,=>**=5o",
"  $X>,,=:=::=,=:>4,:*>==2o %O&XXXX%*=:X*:*43o ;.X-<*e4,,:****,3o",
"  *::=,,==,=:==4:=::=,=03o %$-XXXX&X*:>,1,56o **:>**:,,,=>=*>,6o",
"  ,:>,,,22,==,1==::=,2,w6o *X*>:444,252,,566  <<,,=,252,8,,0,66 ",
"ww:=,r25252211522rr22333 ww:>=,1rr2532535369ww-e222q222255253337"
};
