/* XPM */
static char *a4eb31d24a884e4e936f7de2b113ab395QyZuWtu6HRnhNt9[] = {
/* columns rows colors chars-per-pixel */
"64 64 24 1 ",
"  c #9C6038",
". c #905C34",
"X c #885830",
"o c #744C28",
"O c #80502C",
"+ c #A0643C",
"@ c #A86840",
"# c #6C4824",
"$ c #5C4020",
"% c #543C1C",
"& c #483818",
"* c #382C14",
"= c #403018",
"- c gray22",
"; c gray25",
": c #484848",
"> c #045800",
", c #047000",
"< c #046400",
"1 c #047C00",
"2 c #048800",
"3 c #302410",
"4 c black",
"5 c #28200C",
/* pixels */
"  .XXoOOXO+XX @O XOOOO.OoOXOOOOoOooXO OXOOX.OOO#OoOoOoOX O.XOO o",
"##$$%&%%%%$&&$o$#$%%&%$%&&%%%%$%#%&&&&%%%&%$&%$%#%$&%&%%$&%%%$$%",
"*=*==&=*==&==*=*==&=**=====*=*=*==&****==*===*=*==&*=*====*=*==&",
"-----;;-;;;;;;;;;;---;;:-;;----------;;-;:;;--;;;;;;;;;;-;;-----",
">>>>>,<>,1,><<<,,<<>>>,,><,>>>>>>>>>>,<>,1,>>><,,,<,<<,,><,>>>>>",
">>>>>,<><,<>>><1,<,<><,,><,>>>>>>>>>>,<><,,><<<,1,>>>>1,><,>>>>>",
">>>>>,<><,<>>><,<<1,>>11><,>>>>>>>>>>,<>,1,><1,<,<>>>>,,><,>>>>>",
">>>>>,<><,<<>><,<<,1<<11><,>>>>>>>>>>,<>,1,>,1,><,<>><,,><,>>>>>",
">>>>>,<><,,,<<,,>><,<,11><,>>>>>>>>>>,<>,1,<,,<><,,<,,,,><,>>>>>",
">>>>>,<><,,<,,<>>>><,,11><,>>>>>>>>>>,<>,11,<<>>><,,,,,,><,>>>>>",
">>>>>,<><1,>>>>>>>>><<11><,>>>>>>>>>>,<>,1,<>>>>>>>>><1,><,>>>>>",
">>>>>,<><1,>><>>>>>>><,1><,>>>>>>>>>>,<>,1,>>>>>>>>>><1,><,>>>>>",
">>>>>,<>,,<<,,,<>>>>><1,><,>>>>>>>>>>,<>,1,>>>>>><<<<<,1><,>>>>>",
">>>>>,<>,1,,<<,,<>>>><1,><,>>>>>>>>>>,<>,1,>>>><,,,,,<,,><,>>>>>",
">>>>>,<>,11,>>>,,>>>><1,><,>>>>>>>>>>,<>,1,>>>>,,<<<,111><,>>>>>",
">>>>>,<>1,,<>>><,<>>,,,,><,>>>>>>>>>>,<><,1,>><,,>>><,11><,>>>>>",
">>>>>,<>11<>>>>>1,<,,11,><,>>>>>>>>>>,<>,111,<<1<>>>><12><,>>>>>",
">>>>>,<>11<>>>>>,,,,,,1,><,>>>>>>>>>>,<>,11,1,,1<>>>>>11><,>>>>>",
">>>>>,<>,,<>>>>>,,,,><,,><,>>>>>>>>>>,<><,,><,,1<>>>><,1><,>>>>>",
">>>>>,<>,,<><<<,,,<>><1,><,>>>>>>>>>>,<><1,>><,,,<<<><,1><,>>>>>",
">>>>>,<><,<<<,,,,1<>><,<><,>>>>>>>>>>,<><,,<>>,1,,,,<<,,><,>>>>>",
">>>>>,<><,,,<,,,,1,><,,<><,>>>>>>>>>>,<><,,<>>11,,,,<<,,><,>>>>>",
">>>>>,<>,11,>><111,<,,1,><,>>>>>>>>>>,<><11,<<111,<<,,1,><,>>>>>",
">>>>>,<>11,>>><1,1,,,,1,><,>>>>>>>>>>,<><,1,<,111,>>>,11><,>>>>>",
">>>>>,<>11<>>>,1,,<<<,,,><,>>>>>>>>>>,<><,1<<,,,1,<>><11><,>>>>>",
">>>>>,<>,1<><<,,1<>>><1,><,>>>>>>>>>>,<><,,<>>>11,,<><11><,>>>>>",
">>>>>,<>,1<><<<<1,>>><11><,>>>>>>>>>>,<>,11>>><1,<,<>>11><,>>>>>",
">>>>>,<>,,,<,<>>,,<<<,11><,>>>>>>>>>>,<>,11,><,,<><,<<1,><,>>>>>",
">>>>>,<>,,,,,<>><,,,111,><,>>>>>>>>>>,<><111,,,,>><,,,1,><,>>>>>",
">>>>>,<>,,,,<>>>><,,,,,,><,>>>>>>>>>>,<><,,11,,>>>><,1,,><,>>>>>",
">>>>>,<><,,<>>>>>>><<,,<><,>>>>>>>>>>,<><,,<<<>>>>>><,,,><,>>>>>",
">>>>>,<>,,<>>>>><<<<<<1,><,>>>>>>>>>>,<><,1<<<<<>>>>><,,><,>>>>>",
">>>>>,<>,1<>>>><,,,,<<1,><,>>>>>>>>>>,<>,11<,,,,<>>>><11><,>>>>>",
">>>>>,<>,1,>>>>,,<<<,,,,><,>>>>>>>>>>,<><,1,<<<,,<>>><11><,>>>>>",
">>>>>,<>,1,<>>>,<>>><,,,><,>>>>>>>>>>,<><,1,<>><,<>>><11><,>>>>>",
">>>>>,<>,1,<<><<>>>>><,,><,>>>>>>>>>>,<><,,<>>>><<>><,11><,>>>>>",
">>>>>,<><,,<<<<,>>>>><,1><,>>>>>>>>>>,<>,1,>>>>><,<<<,1,><,>>>>>",
">>>>>,<><,,><,,,>>>>><,,><,>>>>>>>>>>,<><1,>>>>><,,<<<1,><,>>>>>",
">>>>>,<><,,>>,,,<<<<>>,,><,>>>>>>>>>>,<><,,>><<<<,,<><1,><,>>>>>",
">>>>>,<><,<>><1,,,,,<<1,><,>>>>>>>>>>,<><,,<<,,,,1,>><,,><,>>>>>",
">>>>>,<><,<>><111,<<,11,><,>>>>>>>>>>,<><11,,,,,111>><,,><,>>>>>",
"OOX.OOO#OoOoOoOX O.XOO ooO @O XOOOO.OoOXOOOOoOooXO OXOOX.OOO#OoO",
"%&%$&%$%#%$&%&%%$&%%%$$%&&$o$#$%%&%$%&&%%%%$%#%&&&&%%%&%$&%$%#%$",
"=*===*=*==&*=*====*=*==&==*=*==&=**=====*=*=*==&****==*===*=*==&",
"%$%$34O%#%#%###34O#%#%%#$%34O%%%#$%%%34O%$#%%%#34O#%%%%%%%34O%##",
"oXoX%5@o.o.o...%5@.o.oo.Oo%5@ooO.OOoO%5@OO.Ooo.%5@.oooOOoo%5@O..",
"oXoX%5@o.o.o...%5@.o.oo.Oo%5@ooO.OooO%5@oO.Ooo.%5@XoooOXOo%5@O.X",
"oXoX%5@o.o.o...%5@.o.oo.oO%5@ooO.OoOO%5@oO.Ooo.%5@XooOX.XO%5@X.X",
"oXoX%5@o.o.oX..%5@.o.oo.oO%5@ooO.OoOX%5@oO.Ooo.%5@OooO...O%5@..O",
"oXoX%5@o.o.oX..%5@.o.oo.oO%5@ooO.OoOX%5@oO.Ooo.%5@OooX...X%5@..O",
"oXoX%5@o.o.oO..%5@.o.oo.oO%5@ooX.ooO.%5@oo.Xoo.%5@ooo.....%5@..O",
"oXoX%5@o.o.oO..%5@.o.oo.oO%5@ooXXooO.%5@ooXXoo.%5@ooO.....%5@..O",
"oXoX%5@o.o.Oo..%5@.o.ooXoO%5@oo.XooX.%5@ooX.oo.%5@ooO.....%5@.Xo",
"oXoX%5@o.o.Oo..%5@.o.ooXoX%5@oo.OooX.%5@ooO.oo.%5@ooX.....%5@.Xo",
"oXoX%5@o.o.Oo..%5@.o.ooXoX%5@oo.OoO..%5@OoO.oo.%5@ooX.....%5@.Xo",
"oXoX%5@o.o.Oo..%5@.o.ooOoX%5@oo.OoO..%5@OoO.oo.%5@oo...O..%5@.Oo",
"oXoX%5@o.o.Oo..%5@.o.ooOo.%5@oo.OoO..%5@OoO.oo.%5@oO..OoO.%5@.Oo",
"oXoX%5@o.o.OoX.%5@.o.oooo.%5@oo.OoO..%5@OoO.oo.%5@oO..OoOX%5@.Oo",
"OXoX%5@o.o.XoX.%5@.o.oooO.%5@oo.OoO..%5@OoO.oo.%5@oO.OOooO%5@.Oo",
"OXoX%5@o.o.XoXX%5@.o.oooO.%5@oo.ooX.X%5@Xoo.oo.%5@oX.OoooO%5@Xoo",
"OXoX%5@o.o.XoOX%5@.o.oooO.%5@oo.ooX.X%5@Xoo.oo.%5@oX.Ooooo%5@Xoo",
"OOOOoOooXO OXOOX.OOO#OoOoOoOX O.XOO o  .XXoOOXO+XX @O XOOOO.OoOX",
"%%%$%#%&&&&%%%&%$&%$%#%$&%&%%$&%%%$$%##$$%&%%%%$&&$o$#$%%&%$%&&%",
"*=*=*==&****==*===*=*==&*=*====*=*==&*=*==&=*==&==*=*==&=**====="
};
